<?xml version="1.0" encoding="utf-8"?>
<!-- Generator: Adobe Illustrator 22.1.0, SVG Export Plug-In . SVG Version: 6.00 Build 0)  -->
<svg version="1.1" id="レイヤー_1" xmlns="http://www.w3.org/2000/svg" xmlns:xlink="http://www.w3.org/1999/xlink" x="0px"
	 y="0px" viewBox="0 0 128 128" style="enable-background:new 0 0 128 128;" xml:space="preserve">
<style type="text/css">
	.st0{fill:#FFFFFF;}
	.st1{fill:none;stroke:#FFFFFF;stroke-width:2;stroke-linecap:round;stroke-linejoin:round;}
</style>
<title>Speed</title>
<desc>A color styled icon from Orion Icon Library.</desc>
<circle cx="64" cy="64" r="60"/>
<path class="st0" d="M30.4,33.1C30.1,32.8,30,32.4,30,32c0-1.1,0.9-2,2-2c0.3,0,0.7,0.1,1,0.3l37.5,23.6c5.6,3.6,7.2,11,3.6,16.6
	s-11,7.2-16.6,3.6c-1.3-0.9-2.5-2-3.4-3.2L30.4,33.1z"/>
<line class="st1" x1="16" y1="64" x2="28" y2="64"/>
<line class="st1" x1="64" y1="16" x2="64" y2="28"/>
<line class="st1" x1="100" y1="64" x2="112" y2="64"/>
<line class="st1" x1="90" y1="40" x2="98" y2="32"/>
</svg>
