<?xml version="1.0" encoding="utf-8"?>
<!-- Generator: Adobe Illustrator 22.1.0, SVG Export Plug-In . SVG Version: 6.00 Build 0)  -->
<svg version="1.1" id="レイヤー_1" xmlns="http://www.w3.org/2000/svg" xmlns:xlink="http://www.w3.org/1999/xlink" x="0px"
	 y="0px" viewBox="0 0 128 128" style="enable-background:new 0 0 128 128;" xml:space="preserve">
<style type="text/css">
	.st0{fill:#191919;}
</style>
<title>Trello</title>
<desc>A solid styled icon from Orion Icon Library.</desc>
<path class="st0" d="M126.2,1.6c-1-1-2.4-1.6-3.8-1.6H5.2C3.8,0,2.4,0.6,1.4,1.6c-1,1-1.6,2.4-1.6,3.8v117.4
	c0.1,1.4,0.6,2.8,1.6,3.8c1.1,0.9,2.4,1.4,3.8,1.4h117.4c1.4-0.1,2.8-0.6,3.8-1.6c1-1,1.6-2.4,1.6-3.8V5.4
	C127.9,4,127.2,2.6,126.2,1.6z M58.4,101.4c0,0.8-0.3,1.5-0.8,2c-0.5,0.5-1.3,0.8-2,0.8H15.8c-0.8,0-1.5-0.3-2-0.8
	c-0.5-0.5-0.8-1.3-0.8-2V16c0-1.5,1.2-2.8,2.7-2.8c0,0,0.1,0,0.1,0h40c1.5,0,2.8,1.2,2.8,2.7c0,0,0,0.1,0,0.1v85.4H58.4z
	 M114.4,69.4c0,0.8-0.3,1.5-0.8,2c-0.5,0.5-1.3,0.8-2,0.8H71.8c-1.5,0-2.8-1.2-2.8-2.7c0,0,0-0.1,0-0.1V16c0-1.5,1.2-2.8,2.7-2.8
	c0,0,0.1,0,0.1,0h40c0.8,0,1.5,0.3,2,0.8c0.5,0.5,0.8,1.3,0.8,2v53.4H114.4z"/>
</svg>
