<svg xmlns="http://www.w3.org/2000/svg" viewBox="0 0 64 64" aria-labelledby="title"
aria-describedby="desc" role="img" xmlns:xlink="http://www.w3.org/1999/xlink"
width="128" height="128">
  <title>Performance</title>
  <desc>A color styled icon from Orion Icon Library.</desc>
  <path data-name="layer2"
  d="M57.372 54a30 30 0 1 0-50.744 0z" fill="#f3f8ff"></path>
  <path data-name="opacity" d="M32 8A29.938 29.938 0 0 0 8.882 18.882 29.989 29.989 0 0 1 55.484 54h1.888A29.994 29.994 0 0 0 32 8z"
  opacity=".15"></path>
  <path data-name="layer1" d="M15.183 22.544A.976.976 0 0 1 15 22a1 1 0 0 1 1.489-.873l18.748 11.82a6 6 0 1 1-8.153 8.487z"
  fill="#f66"></path>
  <path data-name="opacity" d="M32 44a5.987 5.987 0 0 1-4.916-2.566l-9.13-14.492-4.465-2.815A1 1 0 0 0 12 25a.976.976 0 0 0 .183.544l11.901 18.89a5.993 5.993 0 0 0 10.382-.968A5.967 5.967 0 0 1 32 44z"
  opacity=".15"></path>
  <path data-name="stroke" fill="none" stroke="#2e4369" stroke-linecap="round"
  stroke-linejoin="round" stroke-width="2" d="M2 38h8M32 8v8m22 22h8M48 22l5.213-5.213m-38.03 5.757A.976.976 0 0 1 15 22a1 1 0 0 1 1.489-.873l18.748 11.82a6 6 0 1 1-8.153 8.487z"></path>
  <path data-name="stroke" d="M57.372 54a30 30 0 1 0-50.744 0z" fill="none"
  stroke="#2e4369" stroke-linecap="round" stroke-linejoin="round" stroke-width="2"></path>
</svg>