<?xml version="1.0" encoding="utf-8"?>
<!-- Generator: Adobe Illustrator 22.1.0, SVG Export Plug-In . SVG Version: 6.00 Build 0)  -->
<svg version="1.1" id="レイヤー_1" xmlns="http://www.w3.org/2000/svg" xmlns:xlink="http://www.w3.org/1999/xlink" x="0px"
	 y="0px" viewBox="0 0 128 128" style="enable-background:new 0 0 128 128;" xml:space="preserve">
<style type="text/css">
	.st0{fill:#191919;}
</style>
<title>Content Post</title>
<desc>A solid styled icon from Orion Icon Library.</desc>
<path class="st0" d="M124,0H4C1.8,0,0,1.8,0,4v120c0,2.2,1.8,4,4,4h120c2.2,0,4-1.8,4-4V4C128,1.8,126.2,0,124,0z M68,24h24
	c2.2,0,4,1.8,4,4s-1.8,4-4,4H68c-2.2,0-4-1.8-4-4S65.8,24,68,24z M52,104H20V72h32V104z M52,56H20V24h32V56z M68,72h24
	c2.2,0,4,1.8,4,4s-1.8,4-4,4H68c-2.2,0-4-1.8-4-4S65.8,72,68,72z M108,96H68c-2.2,0-4-1.8-4-4s1.8-4,4-4h40c2.2,0,4,1.8,4,4
	S110.2,96,108,96z M108,64H68c-2.2,0-4-1.8-4-4s1.8-4,4-4h40c2.2,0,4,1.8,4,4S110.2,64,108,64z M108,48H68c-2.2,0-4-1.8-4-4
	s1.8-4,4-4h40c2.2,0,4,1.8,4,4S110.2,48,108,48z"/>
</svg>
