<svg xmlns="http://www.w3.org/2000/svg" viewBox="0 0 64 64" aria-labelledby="title"
aria-describedby="desc" role="img" xmlns:xlink="http://www.w3.org/1999/xlink"
width="128" height="128">
  <title>Settings Database</title>
  <desc>A color styled icon from Orion Icon Library.</desc>
  <path data-name="layer2"
  d="M48 10c-.1-4-10.3-8-23-8S2 5.6 2 10v36c0 4.4 10.3 8 23 8a56.8 56.8 0 0 0 13.4-1.5L48 48V10z"
  fill="#7b8baf"></path>
  <ellipse data-name="opacity" cx="25" cy="10" rx="23" ry="8" fill="#fff"
  opacity=".25"></ellipse>
  <path data-name="opacity" d="M2 10v36c0 3.2 5.3 5.9 13 7.2v-36c-7.7-1.3-13-4-13-7.2z"
  fill="#000064" opacity=".18"></path>
  <path data-name="opacity" d="M31 17.7v36a50.5 50.5 0 0 0 7.4-1.2l5.6-2.6V14.5a37.8 37.8 0 0 1-13 3.2z"
  fill="#fff" opacity=".15"></path>
  <path data-name="opacity" d="M36.1 49a5 5 0 0 1 10-.1L48 48v-8.8l-2.7-1.5V34h-8v3.7a7.8 7.8 0 0 0-3.8 2.1L30.4 38l-4 6.9 3 1.7a11.7 11.7 0 0 0-.2 2.3 11.9 11.9 0 0 0 .2 2.1L26 53l.5.9a56.2 56.2 0 0 0 11.2-1.3 5 5 0 0 1-1.6-3.6z"
  fill="#000064" opacity=".18"></path>
  <path data-name="layer1" d="M58.6 49.1a11.8 11.8 0 0 0 .2-2.1 11.9 11.9 0 0 0-.2-2.3l3.1-1.7-4-6.9-3 1.8a18.2 18.2 0 0 0-3.7-2.2V32h-8v3.7a7.8 7.8 0 0 0-3.8 2.1L36.1 36 32 43l3 1.7a11.7 11.7 0 0 0-.2 2.3 11.9 11.9 0 0 0 .2 2.1L31.7 51l4 6.9 3.4-1.9a8.2 8.2 0 0 0 3.9 2.3V62h8v-3.7a19.2 19.2 0 0 0 3.8-2.3l3.2 2 4-7zM46.8 52a5 5 0 1 1 5-5 5 5 0 0 1-5 5z"
  fill="#a6b1c9"></path>
  <ellipse data-name="stroke" cx="25" cy="10" rx="23" ry="8" fill="none"
  stroke="#2e4369" stroke-linecap="round" stroke-linejoin="round" stroke-width="2"></ellipse>
  <path data-name="stroke" fill="none" stroke="#2e4369" stroke-linecap="round"
  stroke-linejoin="round" stroke-width="2" d="M48 32V10m0 12c0 4.4-10.3 8-23 8S2 26.4 2 22m30.9 19.5a63.3 63.3 0 0 1-7.9.5c-12.7 0-23-3.6-23-8"></path>
  <path data-name="stroke" d="M33.1 53.5a63.2 63.2 0 0 1-8.1.5c-12.7 0-23-3.6-23-8V10"
  fill="none" stroke="#2e4369" stroke-linecap="round" stroke-linejoin="round"
  stroke-width="2"></path>
  <circle data-name="stroke" cx="46.8" cy="47" r="5" fill="none"
  stroke="#2e4369" stroke-linecap="round" stroke-linejoin="round" stroke-width="2"></circle>
  <path data-name="stroke" d="M62 51l-3.4-2a11.8 11.8 0 0 0 .2-2.1 11.9 11.9 0 0 0-.2-2.3l3.1-1.6-4-6.9-3.1 1.8a12 12 0 0 0-3.7-2.1V32h-8v3.7a12 12 0 0 0-3.7 2.1L36 36l-4 7 3 1.7a11.7 11.7 0 0 0-.2 2.3 11.9 11.9 0 0 0 .2 2.1L31.7 51l4 6.9 3.3-1.8a12 12 0 0 0 3.8 2.2V62h8v-3.7a12.1 12.1 0 0 0 3.9-2.3l3.3 2z"
  fill="none" stroke="#2e4369" stroke-linecap="round" stroke-linejoin="round"
  stroke-width="2"></path>
</svg>