<?xml version="1.0" encoding="utf-8"?>
<!-- Generator: Adobe Illustrator 22.1.0, SVG Export Plug-In . SVG Version: 6.00 Build 0)  -->
<svg version="1.1" id="レイヤー_1" xmlns="http://www.w3.org/2000/svg" xmlns:xlink="http://www.w3.org/1999/xlink" x="0px"
	 y="0px" viewBox="0 0 128 128" style="enable-background:new 0 0 128 128;" xml:space="preserve">
<style type="text/css">
	.st0{fill:#0ECEC8;}
	.st1{opacity:0.15;fill:#000028;enable-background:new    ;}
	.st2{fill:none;stroke:#2E4369;stroke-width:2;stroke-linecap:round;stroke-linejoin:round;}
</style>
<title>Checkbox Confirm Circle</title>
<desc>A color styled icon from Orion Icon Library.</desc>
<circle class="st0" cx="56" cy="72" r="52"/>
<path class="st1" d="M62.9,117.1c-28.7,0-52-23.3-52-52c0-12.1,4.2-23.8,11.9-33.1C0.7,50.2-2.4,83,15.9,105.1s51.1,25.2,73.2,6.9
	c2.5-2.1,4.8-4.4,6.9-6.9C86.8,112.9,75,117.1,62.9,117.1L62.9,117.1z"/>
<path class="st2" d="M31.5,60l24,28l68-84"/>
<path class="st2" d="M106.9,64c4.4,28.4-15,55-43.4,59.4s-55-15-59.4-43.4s15-55,43.4-59.4c2.6-0.4,5.3-0.6,8-0.6
	c6.9,0,13.7,1.3,20,4"/>
</svg>
