<?xml version="1.0" encoding="utf-8"?>
<!-- Generator: Adobe Illustrator 22.1.0, SVG Export Plug-In . SVG Version: 6.00 Build 0)  -->
<svg version="1.1" xmlns="http://www.w3.org/2000/svg" xmlns:xlink="http://www.w3.org/1999/xlink" x="0px" y="0px"
	 viewBox="0 0 252 252" style="enable-background:new 0 0 252 252;" xml:space="preserve">
<style type="text/css">
	.st0{fill:#0ECEC8;}
</style>
<g id="BACKGROUND">
</g>
<g id="OBJECTS">
	<g id="XMLID_31_">
		<path class="st0" d="M230.2,94.8c11.5,0,20.8-9.3,20.8-20.8v0c0-11.5-9.3-20.8-20.8-20.8h-24l2.8-28.7
			c1.1-11.5-7.2-21.6-18.7-22.8c-11.5-1.1-21.6,7.2-22.8,18.7l-3.2,32.8H102l2.8-28.7C106,12.9,97.6,2.7,86.2,1.6
			C74.7,0.5,64.5,8.8,63.4,20.3l-3.2,32.8H21.8C10.3,53.1,1,62.4,1,73.9v0c0,11.5,9.3,20.8,20.8,20.8h34.2l-6.2,62.5H21.8
			c-5.8,0-11,2.3-14.7,6.1c-3.8,3.8-6.1,9-6.1,14.7c0,11.5,9.3,20.8,20.8,20.8h24L43,227.6c-1.1,11.5,7.2,21.6,18.7,22.8
			c11.5,1.1,21.6-7.2,22.8-18.7l3.2-32.8H150l-2.8,28.7c-1.1,11.5,7.2,21.6,18.7,22.8c11.5,1.1,21.6-7.2,22.8-18.7l3.2-32.8h38.3
			c5.8,0,11-2.3,14.7-6.1c3.8-3.8,6.1-9,6.1-14.7c0-11.5-9.3-20.8-20.8-20.8h-34.2l6.2-62.5H230.2z M154.1,157.2H91.8l6.2-62.5h62.3
			L154.1,157.2z"/>
	</g>
</g>
<g id="DESIGNED_BY_FREEPIK">
</g>
</svg>
