<?xml version="1.0" encoding="utf-8"?>
<!-- Generator: Adobe Illustrator 22.1.0, SVG Export Plug-In . SVG Version: 6.00 Build 0)  -->
<svg version="1.1" xmlns="http://www.w3.org/2000/svg" xmlns:xlink="http://www.w3.org/1999/xlink" x="0px" y="0px"
	 viewBox="0 0 379.5 237.5" style="enable-background:new 0 0 379.5 237.5;" xml:space="preserve">
<style type="text/css">
	.st0{opacity:0.22;}
	.st1{fill:#EFEFEF;}
	.st2{opacity:0.3;}
	.st3{fill:#00D2C9;}
	.st4{fill:#002A28;}
	.st5{fill:#FFFFFF;}
	.st6{fill:none;stroke:#425973;stroke-width:3.3;stroke-linecap:round;stroke-linejoin:round;stroke-miterlimit:10;}
	.st7{fill:#DD9AB2;}
	.st8{fill:#D6819F;}
	.st9{fill:none;stroke:#425973;stroke-width:2.75;stroke-linecap:round;stroke-linejoin:round;stroke-miterlimit:10;}
	.st10{fill:#E9C2D0;}
	.st11{fill:#DB9022;}
</style>
<g id="BACKGROUND">
</g>
<g id="OBJECTS">
	<g>
		<g>
			<g class="st0">
				<path class="st1" d="M204.1,34.4C165,46.9,41-14.8,50.7,69.4c1.5,12.5,9.6,30.2,2.8,41.9c-4.9,8.8-14,13.9-22.7,17.3
					C8,137.8-0.5,155.2,5.3,180.1c15.5,66.9,99.6,51.1,143.7,31.2c31.4-14.8,68.5-17.3,101-4.8c25.5,10.2,41.4,31.5,71.3,25.3
					c26.5-5.3,30.5-30.4,22.8-53.7c-4.4-14.4-7.6-20.5,1.2-34.4c7.4-13.8,20.3-24.3,21.3-40.5c0.2-17.5-7.8-35.2-23.4-41.9
					c-12.8-5.4-24.3-3.2-37-6.6c-28.1-7.9-46.1-51.5-81-36.5c-8.7,4.1-13.6,13.5-23,16.3"/>
				<g>
					<path class="st1" d="M203.5,31.9c-9.9,3.1-21.2,1.6-31.3,0.3c-13.8-1.8-27.4-4.6-41.1-6.8c-13.2-2.1-26.7-4.1-40.2-3.7
						c-10.6,0.3-21.9,2-30.5,8.6C51.4,37.2,48,48.1,47.7,59c-0.2,9.1,1.8,17.6,3.9,26.3c2.8,12.3,3.7,23.5-6.7,32.4
						c-8.3,7.1-19.4,9.2-28.1,15.7c-6.4,4.9-11.3,11.3-13.8,19c-5.2,16.1-0.2,36,8.8,49.9c17,26.4,50.6,30.9,79.4,27.5
						c15.5-1.8,30.7-5.6,45.3-10.9c8.3-3,16.1-7,24.4-10c12.3-4.5,25.2-7.2,38.2-7.9c13-0.7,26.1,0.6,38.7,4
						c11.2,3,21.1,8.1,31,14.1c17.1,10.4,33.9,19.6,54.6,14.7c17.6-4.2,27.1-19.1,26.7-36.7c-0.2-10-3.6-19-6.3-28.5
						c-1.4-4.8-2.2-9.5-0.8-14.4c1.6-5.5,5.1-10.8,8.2-15.5c5.7-8.5,12.7-16.4,16.1-26.3c3.2-9.5,1.8-20.5-1.8-29.8
						c-3.4-8.8-9.2-16.8-17.4-21.6c-11.1-6.5-23.7-5.6-35.9-7.6c-31.9-5.3-50-52.7-86.4-38.2c-9.4,3.8-14.7,13.6-24.3,16.8
						c-3,1-1.7,5.8,1.3,4.8c9.2-3.1,14.1-11.5,22.4-15.9c7.5-4.1,16.8-4.3,24.7-1.4c14.9,5.4,25.6,18.9,38,28.3
						c6.1,4.6,12.7,8.4,20.2,9.9c12,2.5,25,1,36.2,6.9c9.5,5,15.4,14.6,18,24.7c2.9,11.3,1.4,21.4-4.7,31.2
						c-5.5,8.9-12.5,16.8-17.2,26.3c-4,8.2-3.7,15.8-1.2,24.3c4.8,16.1,11.2,36.8-2.9,50.4c-15.5,14.9-39.5,8.3-55.8-1.2
						c-8.4-4.9-16.5-10.4-25.3-14.5c-10.1-4.6-21.1-7.4-32.1-8.9c-23.1-3.1-46.9,0.2-68.5,9c-14.1,5.8-27.7,11.5-42.6,15.1
						c-27.1,6.5-61.7,9.6-85-9c-12.9-10.3-20-27-21-43.2c-0.5-8.7,1.3-17.5,6.6-24.5c5.8-7.7,14.2-11.3,22.8-15.2
						c8.7-3.9,17.5-10,21.3-19.1c3.6-8.7,1.3-18.8-0.8-27.6c-3.1-13.2-6.3-29,1.2-41.4C68.8,21.9,99.5,26.1,118,28.5
						c24.5,3.2,49.3,10.7,74.2,10.1c4.2-0.1,8.5-0.6,12.6-1.8C207.9,35.8,206.6,31,203.5,31.9L203.5,31.9z"/>
				</g>
			</g>
			<g class="st2">
				<g>
					<path class="st1" d="M190,25.6"/>
					<g>
						<path class="st1" d="M190,28.3c3.5,0,3.5-5.5,0-5.5C186.4,22.8,186.4,28.3,190,28.3L190,28.3z"/>
					</g>
				</g>
				<g>
					<path class="st1" d="M27,107.4"/>
					<g>
						<path class="st1" d="M27,112.9c7.1,0,7.1-11,0-11C19.9,101.9,19.9,112.9,27,112.9L27,112.9z"/>
					</g>
				</g>
				<g>
					<path class="st1" d="M357.7,151.3"/>
					<g>
						<path class="st1" d="M357.7,156.8c7.1,0,7.1-11,0-11C350.6,145.8,350.6,156.8,357.7,156.8L357.7,156.8z"/>
					</g>
				</g>
				<g>
					<path class="st1" d="M171.4,20.1"/>
					<g>
						<path class="st1" d="M171.4,25.6c7.1,0,7.1-11,0-11C164.3,14.6,164.3,25.6,171.4,25.6L171.4,25.6z"/>
					</g>
				</g>
				<g>
					<path class="st1" d="M368.7,132.2"/>
					<g>
						<path class="st1" d="M368.7,139.3c9.2,0,9.2-14.3,0-14.3C359.5,125,359.5,139.3,368.7,139.3L368.7,139.3z"/>
					</g>
				</g>
				<g>
					<path class="st1" d="M8.5,123.9"/>
					<g>
						<path class="st1" d="M8.5,131.1c9.2,0,9.2-14.3,0-14.3C-0.7,116.8-0.8,131.1,8.5,131.1L8.5,131.1z"/>
					</g>
				</g>
				<g>
					<path class="st1" d="M313.7,38"/>
					<g>
						<path class="st1" d="M313.7,45.1c9.2,0,9.2-14.3,0-14.3C304.5,30.8,304.5,45.1,313.7,45.1L313.7,45.1z"/>
					</g>
				</g>
				<g>
					<path class="st1" d="M187.2,8.4"/>
					<g>
						<path class="st1" d="M187.2,16.7c10.6,0,10.6-16.5,0-16.5C176.6,0.2,176.6,16.7,187.2,16.7L187.2,16.7z"/>
					</g>
				</g>
				<g>
					<path class="st1" d="M374.6,148.1"/>
					<g>
						<path class="st1" d="M374.6,152.2c5.3,0,5.3-8.2,0-8.2C369.3,144,369.3,152.2,374.6,152.2L374.6,152.2z"/>
					</g>
				</g>
				<g>
					<path class="st1" d="M6.5,104"/>
					<g>
						<path class="st1" d="M6.5,108.1c5.3,0,5.3-8.2,0-8.2C1.2,99.8,1.2,108.1,6.5,108.1L6.5,108.1z"/>
					</g>
				</g>
				<g>
					<path class="st1" d="M330.9,49"/>
					<g>
						<path class="st1" d="M330.9,53.1c5.3,0,5.3-8.2,0-8.2C325.6,44.8,325.6,53.1,330.9,53.1L330.9,53.1z"/>
					</g>
				</g>
				<g>
					<path class="st1" d="M329.5,35.2"/>
					<g>
						<path class="st1" d="M329.5,38c3.5,0,3.5-5.5,0-5.5C326,32.5,326,38,329.5,38L329.5,38z"/>
					</g>
				</g>
				<g>
					<path class="st1" d="M50.9,23"/>
					<g>
						<path class="st1" d="M50.9,28.5c7.1,0,7.1-11,0-11C43.9,17.5,43.8,28.5,50.9,28.5L50.9,28.5z"/>
					</g>
				</g>
				<g>
					<path class="st1" d="M363.9,212.6"/>
					<g>
						<path class="st1" d="M363.9,218.1c7.1,0,7.1-11,0-11C356.8,207.1,356.8,218.1,363.9,218.1L363.9,218.1z"/>
					</g>
				</g>
				<g>
					<path class="st1" d="M6.4,217.4"/>
					<g>
						<path class="st1" d="M6.4,222.9c7.1,0,7.1-11,0-11C-0.7,211.9-0.7,222.9,6.4,222.9L6.4,222.9z"/>
					</g>
				</g>
				<g>
					<path class="st1" d="M67.4,17.5"/>
					<g>
						<path class="st1" d="M67.4,20.2c3.5,0,3.5-5.5,0-5.5C63.9,14.7,63.9,20.2,67.4,20.2L67.4,20.2z"/>
					</g>
				</g>
				<g>
					<path class="st1" d="M364.6,193.3"/>
					<g>
						<path class="st1" d="M364.6,196.1c3.5,0,3.5-5.5,0-5.5C361,190.6,361,196.1,364.6,196.1L364.6,196.1z"/>
					</g>
				</g>
				<g>
					<path class="st1" d="M22.9,227"/>
					<g>
						<path class="st1" d="M22.9,229.8c3.5,0,3.5-5.5,0-5.5C19.3,224.3,19.3,229.8,22.9,229.8L22.9,229.8z"/>
					</g>
				</g>
			</g>
		</g>
		<g>
			<g>
				<g>
					<g>
						<g>
							<g>
								<path class="st3" d="M101.4,137.2c-4.4,1.5-6.5,1.1-8.4-3c-1.3-2.7-2.3-5.5-4-7.9c-1.7-2.3-3.9-4.8-6.8-5.6
									c-2.6-0.7-5.3,0.2-7.9,0.4c-6.4,0.5-14.3-1-15.3-8.2c-0.8-5.2-0.7-10-3-14.9c-1.1-2.4-4.7-0.3-3.6,2.1
									c2.5,5.4,1.3,11.4,3.3,16.8c2.2,5.9,8.6,7.5,14.2,8.1c3.5,0.4,8-1.3,11.3-0.4c4.1,1.2,6.3,6.8,7.8,10.4
									c2.8,6.5,6.7,8.5,13.6,6.1C105,140.3,103.9,136.3,101.4,137.2L101.4,137.2z"/>
							</g>
						</g>
						<g>
							<g>
								<g>
									<path class="st3" d="M57.8,92.4c-1.2,1.6-2.7,2.6-4.5,3.5c-1.9,1-0.2,3.8,1.7,2.8c2.3-1.2,4.1-2.6,5.7-4.7
										c0.5-0.7,0.1-1.8-0.6-2.3C59.2,91.3,58.4,91.7,57.8,92.4L57.8,92.4z"/>
								</g>
							</g>
							<g>
								<g>
									<path class="st3" d="M51.9,88c0,3.5,0.5,7,0.5,10.5c0,2.1,3.3,2.1,3.3,0c0-3.5-0.5-7-0.5-10.5C55.2,85.9,51.9,85.9,51.9,88
										L51.9,88z"/>
								</g>
							</g>
							<g>
								<g>
									<path class="st3" d="M46.3,91.4c2.2,2.8,4.5,5.5,7.5,7.4c1.8,1.1,3.5-1.7,1.7-2.8c-2.8-1.7-4.8-4.4-6.8-6.9
										C47.3,87.4,45,89.7,46.3,91.4L46.3,91.4z"/>
								</g>
							</g>
							<g>
								<g>
									<path class="st3" d="M43.6,96.3c3.1,2.9,6.9,3.9,11,2.6c2-0.6,1.2-3.8-0.9-3.2c-2.9,0.9-5.5,0.4-7.7-1.8
										C44.4,92.5,42,94.9,43.6,96.3L43.6,96.3z"/>
								</g>
							</g>
						</g>
					</g>
					<g>
						<g>
							<g>
								<path class="st3" d="M270.1,147.4c0.1-5.3,2-7.2,7.2-7.6c3.3-0.3,6.9,0,10.2-0.9c5.3-1.4,4.5-7.7,7-11.6
									c3.4-5.5,10.5-4.7,16-6.5c5.9-1.9,8.3-6.5,8.7-12.5c0.2-2.7-4-2.6-4.1,0c-0.5,8.5-6.7,8.6-13.5,10.1
									c-6,1.3-10.1,4.4-12.1,10.3c-0.8,2.2-0.8,5.1-3,6.2c-2.7,1.4-7.6,0.5-10.6,0.8c-7,0.8-9.6,4.7-9.7,11.6
									C265.9,150.1,270,150.1,270.1,147.4L270.1,147.4z"/>
							</g>
						</g>
						<g>
							<g>
								<g>
									<path class="st3" d="M309.4,103.3c1.4,3.4,3.8,5.8,7.2,7.2c0.8,0.3,1.8-0.4,2-1.2c0.3-0.9-0.3-1.7-1.2-2
										c-2.2-0.9-4-2.7-4.9-4.9c-0.3-0.8-1.1-1.4-2-1.2C309.7,101.5,309,102.5,309.4,103.3L309.4,103.3z"/>
								</g>
							</g>
							<g>
								<g>
									<path class="st3" d="M314.3,99c0,2.8,0,5.5,0,8.2c0,2.1,3.3,2.1,3.3,0c0-2.8,0-5.5,0-8.2C317.6,96.9,314.3,96.9,314.3,99
										L314.3,99z"/>
								</g>
							</g>
							<g>
								<g>
									<path class="st3" d="M319.8,99.7c-1,2.9-2.7,5.1-5.1,7c-1.6,1.3,0.7,3.7,2.3,2.3c2.8-2.3,4.7-5,5.9-8.4
										C323.7,98.5,320.5,97.7,319.8,99.7L319.8,99.7z"/>
								</g>
							</g>
							<g>
								<g>
									<path class="st3" d="M323.8,103.1c-1.4,2.3-3.7,3.7-6.2,4.7c-1.9,0.8-1.1,4,0.9,3.2c3.3-1.3,6.2-3.2,8.1-6.3
										C327.8,103,325,101.3,323.8,103.1L323.8,103.1z"/>
								</g>
							</g>
						</g>
					</g>
				</g>
				<g>
					<g>
						<g>
							<path class="st4" d="M289.8,207.2c0,2.9-21.6,3.7-23.9,3.7H104.2c-2.3,0-23.9-0.8-23.9-3.7l19.7-29.6c0-2.9,1.9-5.2,4.2-5.2
								h161.7c2.3,0,4.2,2.3,4.2,5.2L289.8,207.2z"/>
							<g>
								<g>
									<polygon class="st3" points="151.8,200.6 110.2,200.6 117.5,183 155.1,183 									"/>
									<polygon class="st3" points="218.2,200.6 259.8,200.6 252.5,183 214.9,183 									"/>
									<polygon class="st3" points="264.4,200.6 279.1,200.6 267.1,183 256,183 									"/>
									<polygon class="st3" points="105.6,200.6 91,200.6 102.9,183 114,183 									"/>
									<polygon class="st3" points="214.6,200.6 155.4,200.6 158.7,183 211.3,183 									"/>
								</g>
								<g>
									<rect x="94.6" y="186.2" class="st4" width="180.9" height="2.7"/>
									<rect x="92.6" y="192.8" class="st4" width="184.8" height="2.7"/>
								</g>
							</g>
						</g>
						<g>
							<path class="st5" d="M290.9,214c0,2.3-0.5,4.2-2.8,4.2H81.9c-2.3,0-2.8-1.9-2.8-4.2v-3.6c0-2.3,0.5-4.2,2.8-4.2h206.1
								c2.3,0,2.8,1.9,2.8,4.2V214z"/>
							<path class="st3" d="M223.6,212.3c0,1.2-1,2.2-2.2,2.2h-72.9c-1.2,0-2.2-1-2.2-2.2l0,0c0-1.2,1-2.2,2.2-2.2h72.9
								C222.7,210.1,223.6,211.1,223.6,212.3L223.6,212.3z"/>
						</g>
					</g>
					<g>
						<path class="st3" d="M272.2,173.6c0,2.3-1.9,4.2-4.2,4.2H102.1c-2.3,0-4.2-1.9-4.2-4.2V65.4c0-2.3,1.9-4.2,4.2-4.2H268
							c2.3,0,4.2,1.9,4.2,4.2V173.6z"/>
						<g>
							<g>
								<path class="st5" d="M185,67.1c2.3,0,2.3-3.5,0-3.5C182.7,63.5,182.7,67.1,185,67.1L185,67.1z"/>
							</g>
						</g>
						<g>
							<path class="st5" d="M260,166.8c0,2-1.6,3.6-3.6,3.6H113.7c-2,0-3.6-1.6-3.6-3.6V73.8c0-2,1.6-3.6,3.6-3.6h142.7
								c2,0,3.6,1.6,3.6,3.6V166.8z"/>
							<g>
								<g>
									<g>
										<line class="st6" x1="163.2" y1="107.9" x2="150.7" y2="120.3"/>
										<line class="st6" x1="163.2" y1="120.3" x2="150.7" y2="107.9"/>
									</g>
									<g>
										<line class="st6" x1="219.3" y1="107.9" x2="206.8" y2="120.3"/>
										<line class="st6" x1="219.3" y1="120.3" x2="206.8" y2="107.9"/>
									</g>
								</g>
								<g>
									<g>
										<path class="st7" d="M213.7,135.3v12.3c0,2.4-2,4.4-4.4,4.4h-2.4c-2.4,0-4.4-2-4.4-4.4v-12.3"/>
										<g>
											<polygon class="st8" points="210,136 208.1,150.3 206.2,136 											"/>
										</g>
									</g>
									<line class="st9" x1="147.7" y1="135.3" x2="222.3" y2="135.3"/>
								</g>
								<g>
									<g>
										<g>
											<path class="st10" d="M135.5,133.5c7.1,0,7.1-11,0-11C128.4,122.5,128.4,133.5,135.5,133.5L135.5,133.5z"/>
										</g>
									</g>
									<g>
										<g>
											<path class="st10" d="M234.5,133.5c7.1,0,7.1-11,0-11C227.4,122.5,227.4,133.5,234.5,133.5L234.5,133.5z"/>
										</g>
									</g>
								</g>
							</g>
						</g>
					</g>
				</g>
			</g>
			<g>
				<g>
					<g>
						<path class="st11" d="M243.9,46.8c0,12.1,0,24.2,0,36.3c0,3.5,5.5,3.5,5.5,0c0-12.1,0-24.2,0-36.3
							C249.4,43.2,243.9,43.2,243.9,46.8L243.9,46.8z"/>
					</g>
				</g>
				<g>
					<g>
						<path class="st11" d="M246.6,97.1c5.3,0,5.3-8.2,0-8.2S241.3,97.1,246.6,97.1L246.6,97.1z"/>
					</g>
				</g>
			</g>
		</g>
	</g>
</g>
<g id="DESIGNED_BY_FREEPIK">
</g>
</svg>
