<?xml version="1.0" encoding="utf-8"?>
<!-- Generator: Adobe Illustrator 22.1.0, SVG Export Plug-In . SVG Version: 6.00 Build 0)  -->
<svg version="1.1" id="レイヤー_1" xmlns="http://www.w3.org/2000/svg" xmlns:xlink="http://www.w3.org/1999/xlink" x="0px"
	 y="0px" viewBox="0 0 336 56" style="enable-background:new 0 0 336 56;" xml:space="preserve">
<style type="text/css">
	.st0{fill:#FFFFFF;}
	.st1{fill:#0ECEC8;}
</style>
<g>
	<path class="st0" d="M0.7,54.9c-0.3-0.3-0.5-0.8-0.5-1.3V5.2c0-0.5,0.2-1,0.5-1.3C1,3.5,1.4,3.3,2,3.3h20c6,0,10.7,1.4,14.2,4.2
		c3.4,2.8,5.1,7,5.1,12.4s-1.7,9.4-5.1,12.2c-3.4,2.8-8.1,4.1-14.2,4.1H11v17.4c0,0.5-0.2,1-0.5,1.3s-0.8,0.5-1.3,0.5H2
		C1.5,55.5,1.1,55.3,0.7,54.9z M21.6,27.9c2.9,0,5.1-0.7,6.6-2c1.5-1.4,2.3-3.4,2.3-6s-0.7-4.6-2.2-6s-3.7-2.2-6.7-2.2H10.8v16.2
		C10.8,27.9,21.6,27.9,21.6,27.9z"/>
	<path class="st0" d="M68.5,51.1c-3.8-3.4-5.8-8.5-6-15.3c-0.1-1.4-0.1-3.6-0.1-6.3c0-2.8,0-5,0.1-6.4c0.2-6.6,2.2-11.7,6.1-15.2
		s9.1-5.3,15.7-5.3S96.1,4.4,100,7.9c3.9,3.5,5.9,8.6,6.1,15.2c0.1,2.9,0.1,5,0.1,6.4c0,1.3-0.1,3.5-0.1,6.3
		c-0.2,6.8-2.2,11.8-6,15.3c-3.8,3.4-9.1,5.1-15.8,5.1C77.6,56.2,72.3,54.5,68.5,51.1z M92.3,44.6c1.9-2,3-5,3.1-9.2
		c0.1-3,0.1-5,0.1-6c0-1.1-0.1-3.2-0.1-6c-0.1-4.1-1.2-7.1-3.2-9.1s-4.6-3-7.8-3c-3.3,0-5.9,1-7.9,3s-3,5.1-3.1,9.1
		c-0.1,1.4-0.1,3.5-0.1,6s0,4.5,0.1,6c0.1,4.1,1.1,7.1,3.1,9.1c2,2,4.6,3,7.9,3C87.7,47.6,90.4,46.6,92.3,44.6z"/>
	<path class="st1" d="M129.2,7.8c-0.2-0.5-0.2-0.9,0-1.4l2-5.1c0.2-0.5,0.5-0.9,1-1.1s0.9-0.2,1.4,0l6.4,2.5c0.5,0.2,0.9,0.5,1.1,1
		c0.2,0.5,0.2,0.9,0,1.4l-2,5.1c-0.2,0.5-0.5,0.8-1,1s-0.9,0.2-1.4,0l-6.4-2.5C129.7,8.6,129.4,8.3,129.2,7.8z"/>
	<path class="st0" d="M130.6,54.9c-0.3-0.3-0.5-0.8-0.5-1.3V18.5c0-0.5,0.2-1,0.5-1.3s0.8-0.5,1.3-0.5h6.3c0.5,0,0.9,0.2,1.3,0.5
		c0.3,0.3,0.5,0.8,0.5,1.3v35.2c0,0.5-0.2,0.9-0.5,1.3c-0.3,0.3-0.8,0.5-1.3,0.5h-6.3C131.4,55.5,131,55.3,130.6,54.9z"/>
	<path class="st0" d="M208,23.6c-0.3-13.5-7.8-20.3-22.4-20.3h-18.2c-0.5,0-1,0.2-1.3,0.5s-0.5,0.8-0.5,1.3v6.8h12.8l0,0h6.8
		c4.2,0,7.2,1,9.2,2.9c1.9,1.9,3,4.9,3.1,9c0.1,2.9,0.1,4.7,0.1,5.5c0,0.7,0,2.6-0.1,5.6c-0.1,4.3-1.1,7.3-2.9,9.2
		c-1.8,1.8-4.8,2.8-8.9,2.8h-9.5l0,0h-10.5v6.9c0,0.5,0.2,0.9,0.5,1.3c0.3,0.3,0.8,0.5,1.3,0.5H186c7.4,0,12.9-1.7,16.4-5
		c3.6-3.3,5.4-8.4,5.6-15.4c0.1-2.9,0.1-4.8,0.1-5.7C208.2,28.4,208.1,26.4,208,23.6z"/>
	<g>
		<path class="st0" d="M243.1,37V21l0,0v-9.1h24.4c0.5,0,1-0.2,1.3-0.5s0.5-0.8,0.5-1.3v-5c0-0.5-0.2-1-0.5-1.3s-0.8-0.5-1.3-0.5
			h-32.9c-0.5,0-1,0.2-1.3,0.5s-0.5,0.8-0.5,1.3v48.5c0,0.5,0.2,0.9,0.5,1.3c0.3,0.3,0.8,0.5,1.3,0.5h33.5c0.5,0,1-0.2,1.3-0.5
			s0.5-0.8,0.5-1.3v-5.1c0-0.5-0.2-1-0.5-1.3s-0.8-0.5-1.3-0.5h-25V37L243.1,37z"/>
		<path class="st0" d="M266.3,25.5c-1-0.3-2.4-0.5-4-0.5H197v8.3h65.3c1.6,0,3-0.2,4-0.5s1.5-0.8,1.5-1.3v-4.7
			C267.8,26.3,267.3,25.8,266.3,25.5z"/>
		<path class="st0" d="M186.5,25.5c1-0.3,2.3-0.5,3.9-0.5H255v8.3h-64.5c-1.6,0-2.9-0.2-3.9-0.5s-1.5-0.8-1.5-1.3v-4.7
			C185,26.3,185.5,25.8,186.5,25.5z"/>
	</g>
	<path class="st0" d="M294.8,54.9c-0.3-0.3-0.5-0.8-0.5-1.3V5.2c0-0.5,0.2-1,0.5-1.3s0.8-0.5,1.3-0.5h19.3c6.1,0,10.9,1.4,14.3,4.2
		c3.5,2.8,5.2,6.9,5.2,12.1c0,3.6-0.9,6.7-2.6,9.1c-1.7,2.5-4.2,4.2-7.3,5.3l10.8,19c0.1,0.3,0.2,0.6,0.2,0.8c0,0.4-0.2,0.8-0.5,1.1
		s-0.7,0.4-1.1,0.4h-6.9c-0.8,0-1.4-0.2-1.9-0.6c-0.4-0.4-0.8-0.9-1.2-1.5L315,35.8h-10.2v17.9c0,0.5-0.2,0.9-0.5,1.3
		c-0.3,0.3-0.8,0.5-1.3,0.5h-6.9C295.6,55.5,295.1,55.3,294.8,54.9z M315.1,27.3c3,0,5.2-0.7,6.7-2s2.2-3.2,2.2-5.8
		c0-2.5-0.7-4.5-2.2-5.9s-3.7-2-6.7-2h-10.4v15.7H315.1z"/>
</g>
</svg>
