<svg xmlns="http://www.w3.org/2000/svg" viewBox="0 0 64 64" aria-labelledby="title"
aria-describedby="desc" role="img" xmlns:xlink="http://www.w3.org/1999/xlink"
width="128" height="128">
  <title>Priority Warning</title>
  <desc>A solid styled icon from Orion Icon Library.</desc>
  <path data-name="layer1"
  d="M32 0a32 32 0 1 0 32 32A32.037 32.037 0 0 0 32 0zm-.144 12.818a3.048 3.048 0 0 1 3.189 2.9c.004.095.004.195 0 .289L34 38.003a2.002 2.002 0 0 1-4 0l-1.045-21.996a3.048 3.048 0 0 1 2.9-3.189zm2.978 36.018a4.01 4.01 0 0 1-6.84-2.83 4.005 4.005 0 1 1 8.01 0 4.062 4.062 0 0 1-1.17 2.83z"
  fill="#721c24"></path>
</svg>