<?xml version="1.0" encoding="utf-8"?>
<!-- Generator: Adobe Illustrator 22.1.0, SVG Export Plug-In . SVG Version: 6.00 Build 0)  -->
<svg version="1.1" xmlns="http://www.w3.org/2000/svg" xmlns:xlink="http://www.w3.org/1999/xlink" x="0px" y="0px"
	 viewBox="0 0 434.9 337.5" style="enable-background:new 0 0 434.9 337.5;" xml:space="preserve">
<style type="text/css">
	.st0{display:none;}
	.st1{display:inline;fill:#E0E4ED;}
	.st2{fill:#FFFFFF;}
	.st3{fill:#0ECEC8;}
	.st4{fill:#032928;}
	.st5{fill:#F7F7F7;}
	.st6{opacity:0.25;}
	.st7{fill:#D98E9D;}
	.st8{fill:#E0E4ED;}
	.st9{opacity:0.3;fill:#737AFB;}
	.st10{fill:#2D2C56;}
	.st11{fill:#37354C;}
	.st12{fill:#E6F40E;}
	.st13{opacity:0.5;fill:url(#SVGID_1_);}
	.st14{fill:url(#SVGID_2_);}
	.st15{fill:#FFDFC6;}
	.st16{fill:#9CABFF;}
	.st17{fill:#2D2B42;}
	.st18{fill:url(#SVGID_3_);}
	.st19{fill:#0F0B19;}
	.st20{fill:#CC3174;}
	.st21{fill:#F8952D;}
	.st22{opacity:0.5;fill:url(#SVGID_4_);}
	.st23{fill:url(#SVGID_5_);}
	.st24{fill:url(#SVGID_6_);}
	.st25{fill:#5C31B1;}
	.st26{fill:#0087FF;}
	.st27{fill:#9B5342;}
	.st28{fill:#BCBACE;}
	.st29{fill:#FFC99F;}
	.st30{fill:url(#SVGID_7_);}
</style>
<g id="BACKGROUND" class="st0">
	<rect x="-32.5" y="-88" class="st1" width="500" height="500"/>
</g>
<g id="OBJECTS">
	<g>
		<g>
			<path class="st2" d="M392.8,0H42.2c-7,0-12.7,5.7-12.7,12.7v241.4h376V12.7C405.5,5.7,399.8,0,392.8,0z"/>
			<path class="st2" d="M430.5,249.8H4.4c-2.5,0-4.4,2-4.4,4.5v5.8c0,2.5,2,4.4,4.4,4.4h426c2.5,0,4.4-2,4.4-4.4v-5.8
				C434.9,251.8,432.9,249.8,430.5,249.8z"/>
			<g>
				<path class="st3" d="M392.3,5.4H42.6c-4.3,0-7.9,3.5-7.9,7.9v237.3h365.4V13.2C400.2,8.9,396.6,5.4,392.3,5.4z"/>
				<rect x="47.9" y="22.9" class="st4" width="339.1" height="219.2"/>
			</g>
			<path class="st5" d="M219.4,15.2c0,1.1-0.9,1.9-1.9,1.9s-1.9-0.9-1.9-1.9c0-1.1,0.9-1.9,1.9-1.9S219.4,14.2,219.4,15.2z"/>
			<path class="st3" d="M254,256.2h-73.1c-1,0-1.7,0.8-1.7,1.7c0,1,0.8,1.7,1.7,1.7H254c1,0,1.7-0.8,1.7-1.7
				C255.8,257,255,256.2,254,256.2z"/>
			<g class="st6">
				<rect x="90.5" y="35" class="st7" width="34" height="6"/>
				<rect x="59.8" y="35" class="st2" width="14" height="6"/>
				<rect x="59.8" y="46" class="st2" width="14" height="6"/>
				<rect x="59.8" y="59" class="st2" width="14" height="6"/>
				<rect x="59.8" y="72" class="st2" width="14" height="6"/>
				<rect x="59.8" y="85" class="st2" width="14" height="6"/>
				<rect x="59.8" y="98" class="st2" width="14" height="6"/>
				<rect x="131.5" y="35" class="st8" width="114" height="6"/>
				<g>
					<rect x="102.5" y="46" class="st7" width="34" height="6"/>
					<rect x="143.5" y="46" class="st8" width="114" height="6"/>
				</g>
				<g>
					<rect x="122.5" y="59" class="st7" width="34" height="6"/>
					<rect x="163.5" y="59" class="st8" width="114" height="6"/>
				</g>
				<g>
					<rect x="142.5" y="72" class="st7" width="34" height="6"/>
					<rect x="183.5" y="72" class="st8" width="114" height="6"/>
				</g>
				<g>
					<rect x="122.5" y="85" class="st7" width="34" height="6"/>
					<rect x="163.5" y="85" class="st8" width="174" height="6"/>
				</g>
				<g>
					<rect x="102.5" y="98" class="st7" width="34" height="6"/>
					<rect x="143.5" y="98" class="st8" width="74" height="6"/>
				</g>
			</g>
			<g class="st6">
				<rect x="90.5" y="115" class="st7" width="34" height="6"/>
				<rect x="59.8" y="115" class="st2" width="14" height="6"/>
				<rect x="59.8" y="126" class="st2" width="14" height="6"/>
				<rect x="59.8" y="139" class="st2" width="14" height="6"/>
				<rect x="59.8" y="152" class="st2" width="14" height="6"/>
				<rect x="59.8" y="165" class="st2" width="14" height="6"/>
				<rect x="59.8" y="178" class="st2" width="14" height="6"/>
				<rect x="131.5" y="115" class="st8" width="114" height="6"/>
				<g>
					<rect x="102.5" y="126" class="st7" width="34" height="6"/>
					<rect x="143.5" y="126" class="st8" width="114" height="6"/>
				</g>
				<g>
					<rect x="122.5" y="139" class="st7" width="34" height="6"/>
					<rect x="163.5" y="139" class="st8" width="114" height="6"/>
				</g>
				<rect x="90.5" y="195" class="st7" width="34" height="6"/>
				<rect x="59.8" y="195" class="st2" width="14" height="6"/>
				<rect x="59.8" y="206" class="st2" width="14" height="6"/>
				<rect x="59.8" y="219" class="st2" width="14" height="6"/>
				<rect x="131.5" y="195" class="st8" width="114" height="6"/>
				<g>
					<rect x="102.5" y="206" class="st7" width="34" height="6"/>
					<rect x="143.5" y="206" class="st8" width="114" height="6"/>
				</g>
				<g>
					<rect x="122.5" y="219" class="st7" width="34" height="6"/>
					<rect x="163.5" y="219" class="st8" width="114" height="6"/>
				</g>
				<g>
					<rect x="142.5" y="152" class="st7" width="34" height="6"/>
					<rect x="183.5" y="152" class="st8" width="174" height="6"/>
				</g>
				<g>
					<rect x="122.5" y="165" class="st7" width="34" height="6"/>
					<rect x="163.5" y="165" class="st8" width="114" height="6"/>
				</g>
				<g>
					<rect x="102.5" y="178" class="st7" width="34" height="6"/>
					<rect x="143.5" y="178" class="st8" width="114" height="6"/>
				</g>
			</g>
		</g>
		<rect x="79" y="249.8" class="st9" width="13.3" height="14.7"/>
		<rect x="104.9" y="249.8" class="st9" width="13.3" height="14.7"/>
		<rect x="358.1" y="249.8" class="st9" width="13.3" height="14.7"/>
		<rect x="381" y="249.8" class="st9" width="13.3" height="14.7"/>
		<g>
			<path class="st10" d="M98.8,308.4l0.1,7.2c0,0-0.9,4.6-1.6,9.5c-0.7,4.9-1.3,10.1-0.5,11.4c1.5,2.4,4.4,0,4.9-2.4
				c0.5-2.4,1.2-17.5,1.2-17.5l0.5-9.7L98.8,308.4z"/>
			<path class="st10" d="M91.5,307.4l1.1,6.5c0,0,2.2,17.7,1,20.4c-1.2,2.7-5.1,1.5-4.9-2.2c0.2-3.6-0.7-16.5-0.7-16.5l-2.2-7.8
				L91.5,307.4z"/>
			<g>
				<path class="st11" d="M94.5,228.4l0.5,8l-20.6,9.9c-3.7,2-5.5,6.3-4.3,10.4l14.2,52.9l7.1-2.2l-6.3-48.7c-0.4-3,1.6-5.8,4.6-6.3
					l7.3-1.1l7.8-7.9l-9,8.1c-2.2,2-3.3,4.9-2.9,7.8l5.8,49.1l6.4,1.6l2.9-48.4c0.2-3.1,2.3-5.7,5.2-6.6l12.7-4
					c2-1.2,3.3-3.4,3.3-5.8l-0.5-17L94.5,228.4z"/>
				<path class="st12" d="M130.1,246.3l-3.4-66.1c0,0-14.1-0.8-18.2-0.8c-2.3,0-6.2,1.1-9.2,2.1c-2.9,0.9-5.3,0.8-6.7,3.5
					l-23.1,44.2l14.2,1.3l4.7-5.4l-2.4-3.6l8.6-20.3L92.9,238L130.1,246.3z"/>
				<linearGradient id="SVGID_1_" gradientUnits="userSpaceOnUse" x1="78.9858" y1="209.7537" x2="94.5707" y2="209.7537">
					<stop  offset="0" style="stop-color:#EAD18C;stop-opacity:0"/>
					<stop  offset="1" style="stop-color:#524F63;stop-opacity:0.7"/>
				</linearGradient>
				<path class="st13" d="M94.3,193.1L79,220.7l4.8,5.6c0,0,1.9,0.4,3.8-0.2l0.8-1l-2.4-3.6l8.6-20.3L94.3,193.1z"/>
				<path class="st2" d="M112.6,191c4.6,0,8.4-3.8,8.4-8.4c0-0.9-0.2-1.8-0.4-2.7c-4.3-0.2-9.8-0.5-12.1-0.5c-1,0-2.4,0.2-3.8,0.6
					c-0.3,0.8-0.4,1.7-0.4,2.6C104.2,187.2,108,191,112.6,191z"/>
				<linearGradient id="SVGID_2_" gradientUnits="userSpaceOnUse" x1="83.8925" y1="237.0834" x2="169.4411" y2="203.2453">
					<stop  offset="0" style="stop-color:#EAD18C;stop-opacity:0"/>
					<stop  offset="1" style="stop-color:#524F63;stop-opacity:0.7"/>
				</linearGradient>
				<polygon class="st14" points="128.4,191.6 130.1,246.7 107.4,241.2 				"/>
				<path class="st15" d="M107,172.6c0.4,0.8,3.2,11.6,3.2,11.6s1,1.8,3.4,1.6c2.4-0.2,3.4-3.5,3.4-3.5l-4.1-13.6L107,172.6z"/>
				<path class="st15" d="M121.6,165.9c0,7.5-7.9,15.7-15.4,15.7c-7.5,0-11.6-8.3-11.6-15.7c0-7.5,6.1-13.5,13.5-13.5
					C115.6,152.4,121.6,158.4,121.6,165.9z"/>
				
					<ellipse transform="matrix(0.1609 -0.987 0.987 0.1609 -74.3326 246.5326)" class="st15" cx="107.8" cy="167" rx="15.2" ry="15.2"/>
				<g>
					<path class="st16" d="M97.1,178.3c-1.8,0-3.8-1.5-4.4-3.4c-0.4-1-0.3-2,0.2-2.6c0.4-0.6,1.1-0.9,2-0.9c1.8,0,3.8,1.5,4.4,3.4
						c0.4,1,0.3,2-0.2,2.6C98.6,178,97.9,178.3,97.1,178.3z M94.8,171.9c-0.7,0-1.2,0.3-1.5,0.7c-0.4,0.5-0.4,1.3-0.1,2.2
						c0.6,1.7,2.4,3,3.9,3c0.7,0,1.2-0.3,1.5-0.7c0.4-0.5,0.4-1.3,0.1-2.2C98.1,173.2,96.4,171.9,94.8,171.9z"/>
				</g>
				<g>
					<path class="st16" d="M106,178.3c-1.8,0-3.8-1.5-4.4-3.4c-0.4-1-0.3-2,0.2-2.6c0.4-0.6,1.1-0.9,2-0.9c1.8,0,3.8,1.5,4.4,3.4
						c0.4,1,0.3,2-0.2,2.6C107.6,178,106.9,178.3,106,178.3z M103.7,171.9c-0.7,0-1.2,0.3-1.5,0.7c-0.4,0.5-0.4,1.3-0.1,2.2
						c0.6,1.7,2.4,3,3.9,3c0.7,0,1.2-0.3,1.5-0.7c0.4-0.5,0.4-1.3,0.1-2.2C107.1,173.2,105.3,171.9,103.7,171.9z"/>
				</g>
				<path class="st17" d="M98.7,175.7c0.2,0.4,0.2,0.9-0.1,1.1c-0.3,0.2-0.7,0-1-0.5c-0.2-0.4-0.2-0.9,0.1-1.1
					C98,175.1,98.4,175.3,98.7,175.7z"/>
				<path class="st17" d="M105.4,176c0.2,0.4,0.2,0.9-0.1,1.1c-0.3,0.2-0.7,0-1-0.5c-0.2-0.4-0.2-0.9,0.1-1.1
					C104.7,175.4,105.2,175.6,105.4,176z"/>
			</g>
			<path class="st15" d="M110.7,240c-0.6-0.2-5.6-2.6-9.1-2.6c-3.5,0-7.9,3.7-7.9,3.7s-0.6,2,1.8,1.6c2.4-0.4-0.3,1.5-0.3,1.5
				s0.1,0.1,2.9,0.5c2.8,0.4,13.5-0.2,13.5-0.2L110.7,240z"/>
			<path class="st12" d="M126.7,180.2l1.9,43.5l-17.9,16.2l0.9,4.5l25.2-13.4c2.4-1.3,3.8-4,3.4-6.7l-4.6-33.3
				c-0.4-4.2-2.9-7.8-6.6-9.7L126.7,180.2z"/>
			<g>
				<path class="st2" d="M112.5,248.2H67v-3.3h45.5c0.9,0,1.7,0.7,1.7,1.7l0,0C114.2,247.4,113.4,248.2,112.5,248.2z"/>
				<path class="st2" d="M100,248.2H56.1c-1.9,0-3.6-1.3-4.1-3.2l-7.8-29.2c-0.7-2.7,1.3-5.4,4.1-5.4h38.3c1.9,0,3.6,1.3,4.1,3.2
					L100,248.2z"/>
				<linearGradient id="SVGID_3_" gradientUnits="userSpaceOnUse" x1="80.0416" y1="229.1082" x2="4.1708" y2="227.3159">
					<stop  offset="0" style="stop-color:#484EC2;stop-opacity:0"/>
					<stop  offset="1" style="stop-color:#444BCC;stop-opacity:0.5"/>
				</linearGradient>
				<path class="st18" d="M48.4,210.4c-2.8,0-4.9,2.7-4.1,5.4L52,245c0.2,0.9,0.8,1.7,1.4,2.2l26.7-36.8H48.4z"/>
				<path class="st3" d="M74.2,231.9c0.5,1.9-0.7,3.4-2.7,3.4c-2,0-3.9-1.5-4.4-3.4c-0.5-1.9,0.7-3.4,2.7-3.4
					C71.7,228.4,73.7,230,74.2,231.9z"/>
			</g>
			<path class="st19" d="M107.8,151.8c-7.8,0-14.2,5.9-15.1,13.5c2.6,2,6.1,2.8,9.3,2.3c3.8-0.7,7.3-3.3,8.9-6.8
				c-0.1,1.7-0.2,3.4,0,5.1c0.3,1.7,1,3.3,2.3,4.4c0.1-1.2,0.2-2.4,0.8-3.4c0.6-1,1.9-1.7,3-1.3c0.8,0.3,1.3,1.1,1.4,2
				c0.1,0.8-0.1,1.7-0.4,2.5c-0.5,1.2-1.2,2.4-2.1,3.4c1.8,0.3,3.7,0.5,5.5,0.3c1-2,1.5-4.2,1.5-6.6
				C123.1,158.6,116.2,151.8,107.8,151.8z"/>
			<path class="st15" d="M120.9,169.5c0,2.5-2.1,4.6-4.6,4.6c-2.5,0-4.6-2.1-4.6-4.6c0-2.5,2.1-4.6,4.6-4.6
				C118.8,164.9,120.9,166.9,120.9,169.5z"/>
			<polygon class="st15" points="91.5,307.4 92.3,312.2 87.5,313.8 86.1,309 			"/>
			<polygon class="st15" points="98.9,313.8 102.9,314.5 103.1,309.4 98.8,308.4 			"/>
		</g>
		<g>
			<path class="st10" d="M360.5,308.4l-0.1,7.2c0,0,0.9,4.6,1.6,9.5c0.7,4.9,1.3,10.1,0.5,11.4c-1.5,2.4-4.4,0-4.9-2.4
				c-0.5-2.4-1.2-17.5-1.2-17.5l-0.5-9.7L360.5,308.4z"/>
			<path class="st10" d="M367.8,307.4l-1.1,6.5c0,0-2.2,17.7-1,20.4c1.2,2.7,5.1,1.5,4.9-2.2c-0.2-3.6,0.7-16.5,0.7-16.5l2.2-7.8
				L367.8,307.4z"/>
			<g>
				<path class="st20" d="M364.8,228.4l-0.5,8l20.6,9.9c3.7,2,5.5,6.3,4.3,10.4l-14.2,52.9l-7.1-2.2l6.3-48.7c0.4-3-1.6-5.8-4.6-6.3
					l-7.3-1.1l-7.8-7.9l9,8.1c2.2,2,3.3,4.9,2.9,7.8l-5.8,49.1l-6.4,1.6l-2.9-48.4c-0.2-3.1-2.3-5.7-5.2-6.6l-12.7-4
					c-2-1.2-3.3-3.4-3.3-5.8l0.5-17L364.8,228.4z"/>
				<path class="st21" d="M329.2,246.3l3.4-66.1c0,0,14.1-0.8,18.2-0.8c2.3,0,6.2,1.1,9.2,2.1c2.9,0.9,5.3,0.8,6.7,3.5l23.1,44.2
					l-14.2,1.3l-4.7-5.4l2.4-3.6l-8.6-20.3l1.7,36.9L329.2,246.3z"/>
				
					<linearGradient id="SVGID_4_" gradientUnits="userSpaceOnUse" x1="245.9849" y1="209.7537" x2="261.5698" y2="209.7537" gradientTransform="matrix(-1 0 0 1 626.3101 0)">
					<stop  offset="0" style="stop-color:#E37808;stop-opacity:0"/>
					<stop  offset="0.8988" style="stop-color:#E37808"/>
				</linearGradient>
				<path class="st22" d="M365,193.1l15.3,27.6l-4.8,5.6c0,0-1.9,0.4-3.8-0.2l-0.8-1l2.4-3.6l-8.6-20.3L365,193.1z"/>
				<path class="st2" d="M351.5,199.3c-4.6,0-13.2-12.1-13.2-16.8c0-0.9,0.2-1.8,0.4-2.7c4.3-0.2,9.8-0.5,12.1-0.5
					c1,0,2.4,0.2,3.8,0.6c0.3,0.8,0.4,1.7,0.4,2.6C355.1,187.2,356.1,199.3,351.5,199.3z"/>
				
					<linearGradient id="SVGID_5_" gradientUnits="userSpaceOnUse" x1="250.8917" y1="237.0833" x2="336.4402" y2="203.2453" gradientTransform="matrix(-1 0 0 1 626.3101 0)">
					<stop  offset="0" style="stop-color:#E37808;stop-opacity:0"/>
					<stop  offset="0.9002" style="stop-color:#E37808"/>
				</linearGradient>
				<polygon class="st23" points="331,191.6 329.2,246.7 352,241.2 				"/>
				<path class="st15" d="M352.3,172.6c-0.4,0.8-3.2,11.6-3.2,11.6s-1,1.8-3.4,1.6c-2.4-0.2-3.4-3.5-3.4-3.5l4.1-13.6L352.3,172.6z"
					/>
				<path class="st15" d="M337.7,165.9c0,7.5,7.9,15.7,15.4,15.7c7.5,0,11.6-8.3,11.6-15.7c0-7.5-6.1-13.5-13.5-13.5
					S337.7,158.4,337.7,165.9z"/>
				
					<ellipse transform="matrix(0.987 -0.1609 0.1609 0.987 -22.2932 58.7462)" class="st15" cx="351.5" cy="167" rx="15.2" ry="15.2"/>
				<path class="st17" d="M361.5,175.3c-0.3,0.5-0.3,1.1,0.1,1.3c0.4,0.2,0.9,0,1.2-0.6c0.3-0.5,0.3-1.1-0.1-1.3
					C362.4,174.5,361.8,174.7,361.5,175.3z"/>
				<path class="st17" d="M353.8,176.1c-0.3,0.6-0.3,1.2,0.1,1.5s1-0.1,1.3-0.6c0.3-0.6,0.3-1.2-0.1-1.5S354.2,175.5,353.8,176.1z"
					/>
			</g>
			<path class="st15" d="M348.6,240c0.6-0.2,5.6-2.6,9.1-2.6c3.5,0,7.9,3.7,7.9,3.7s0.6,2-1.8,1.6c-2.4-0.4,0.3,1.5,0.3,1.5
				s-0.1,0.1-2.9,0.5c-2.8,0.4-13.5-0.2-13.5-0.2L348.6,240z"/>
			<path class="st21" d="M332.6,180.2l-1.9,43.5l17.9,16.2l-0.9,4.5L322.6,231c-2.4-1.3-3.8-4-3.4-6.7l4.6-33.3
				c0.4-4.2,2.9-7.8,6.6-9.7L332.6,180.2z"/>
			<g>
				<path class="st2" d="M346.8,248.2h45.5v-3.3h-45.5c-0.9,0-1.7,0.7-1.7,1.7l0,0C345.1,247.4,345.9,248.2,346.8,248.2z"/>
				<path class="st2" d="M359.3,248.2h43.9c1.9,0,3.6-1.3,4.1-3.2l7.8-29.2c0.7-2.7-1.3-5.4-4.1-5.4h-38.3c-1.9,0-3.6,1.3-4.1,3.2
					L359.3,248.2z"/>
				
					<linearGradient id="SVGID_6_" gradientUnits="userSpaceOnUse" x1="247.0408" y1="229.1082" x2="171.17" y2="227.3159" gradientTransform="matrix(-1 0 0 1 626.3101 0)">
					<stop  offset="0" style="stop-color:#484EC2;stop-opacity:0"/>
					<stop  offset="1" style="stop-color:#444BCC;stop-opacity:0.5"/>
				</linearGradient>
				<path class="st24" d="M411,210.4c2.8,0,4.9,2.7,4.1,5.4l-7.8,29.2c-0.2,0.9-0.8,1.7-1.4,2.2l-26.7-36.8H411z"/>
				<path class="st3" d="M385.1,231.9c-0.5,1.9,0.7,3.4,2.7,3.4c2,0,3.9-1.5,4.4-3.4c0.5-1.9-0.7-3.4-2.7-3.4
					C387.6,228.4,385.6,230,385.1,231.9z"/>
			</g>
			<path class="st25" d="M351.5,151.8c7.8,0,14.2,5.9,15.1,13.5c-2.6,2-6.1,2.8-9.3,2.3c-3.8-0.7-7.3-3.3-8.9-6.8
				c0.1,1.7,0.2,3.4,0,5.1c-0.3,1.7-1,3.3-2.3,4.4c-0.1-1.2-0.2-2.4-0.8-3.4c-0.6-1-1.9-1.7-3-1.3c-0.8,0.3-1.3,1.1-1.4,2
				c-0.1,0.8,0.1,1.7,0.4,2.5c0.5,1.2,1.2,2.4,2.1,3.4c-1.8,0.3-3.7,0.5-5.5,0.3c-1-2-1.5-4.2-1.5-6.6
				C336.3,158.6,343.1,151.8,351.5,151.8z"/>
			<path class="st15" d="M338.4,169.5c0,2.5,2.1,4.6,4.6,4.6c2.5,0,4.6-2.1,4.6-4.6c0-2.5-2.1-4.6-4.6-4.6
				C340.5,164.9,338.4,166.9,338.4,169.5z"/>
			<polygon class="st15" points="367.8,307.4 367,312.2 371.9,313.8 373.2,309 			"/>
			<polygon class="st15" points="360.4,313.8 356.4,314.5 356.2,309.4 360.5,308.4 			"/>
		</g>
		<circle class="st25" cx="343.1" cy="150.4" r="9.8"/>
		<rect x="168.1" y="249.8" class="st9" width="13.3" height="14.7"/>
		<rect x="214.5" y="250.6" class="st9" width="13.3" height="13.9"/>
		<g>
			<path class="st11" d="M187.2,154l-5.4,6.6l-2.7,5.6l-2.5,7.1c0,0-4.4,4.1-4.1,4.1c0.2,0.1-0.3,5,0.2,5.7c0.5,0.7,5.4,6.6,5.4,6.6
				s4.8,3.1,6.7,3.5c1.9,0.4,11.5,4.6,11.5,4.6l5.9-5.6l-2.2-2.9c0,0,6.1-3.7,6.9-4.2c0.7-0.5,3.7-3.4,3.7-3.4s-0.1-2.6-0.6-4.2
				c-0.4-1.7-3.4-9.8-3.4-9.8s-3.9-5.6-4.4-6.6c-0.5-1-2.7-4.2-2.7-4.2L187.2,154z"/>
			<path class="st26" d="M211,232l-37.6,0.3l-0.3-38.3c0-2.3,1.8-4.1,4.1-4.1l29.5-0.2c2.3,0,4.1,1.8,4.1,4.1L211,232z"/>
			<path class="st11" d="M184.8,189.8c0,0,2.8,3.3,2.8,10.2s0.2,19.5,0.2,19.5l8.4,0v-19.9c0,0-0.7-6.8,4.7-12l-9.2,0.2L184.8,189.8
				z"/>
			<path class="st15" d="M191.6,197.8L191.6,197.8c-2.5,0-4.6-2-4.6-4.5l-0.1-13.9c0-0.3,0.3-0.6,0.6-0.6l7.9-0.1
				c0.3,0,0.6,0.3,0.6,0.6l0.1,13.9C196.2,195.7,194.2,197.8,191.6,197.8z"/>
			<path class="st27" d="M207.6,176.1c0-0.2,0-0.3,0-0.5c0-1.4-0.2-2.7-0.5-4v-1.8c0-8.7-7.1-15.9-15.9-15.9l0,0
				c-8.7,0-15.9,7.1-15.9,15.9v6.2H207.6z"/>
			<path class="st15" d="M205.9,171.7v-1.5c0-8.1-6.6-14.6-14.6-14.6l0,0c-8.1,0-14.6,6.6-14.6,14.6v6c0,0.4,0,0.8,0.1,1.2
				c1,7.3,7.2,12.9,14.7,12.9c8.2,0,14.9-6.7,14.9-14.9C206.3,174.1,206.2,172.9,205.9,171.7z"/>
			<path class="st11" d="M186.7,178c0,0.6-0.5,1.1-1.1,1.1c-0.6,0-1.1-0.5-1.1-1.1c0-0.6,0.5-1.1,1.1-1.1
				C186.2,176.9,186.7,177.4,186.7,178z"/>
			<path class="st11" d="M197.4,178c0,0.6-0.5,1.1-1.1,1.1c-0.6,0-1.1-0.5-1.1-1.1c0-0.6,0.5-1.1,1.1-1.1
				C196.9,176.9,197.4,177.4,197.4,178z"/>
			<path class="st15" d="M180.8,177.5c0,2.3-1.9,4.1-4.1,4.1c-2.3,0-4.1-1.9-4.1-4.1c0-2.3,1.9-4.1,4.1-4.1
				C178.9,173.3,180.8,175.2,180.8,177.5z"/>
			<path class="st15" d="M210,177.5c0,2.3-1.9,4.1-4.1,4.1c-2.3,0-4.1-1.9-4.1-4.1c0-2.3,1.9-4.1,4.1-4.1
				C208.2,173.3,210,175.2,210,177.5z"/>
			<path class="st28" d="M192.3,248.9l-18.5,8.7l3.4,56.3h-6.6l-13.4-57.7c-0.6-2.5,0.5-5.2,2.7-6.6l17.5-10.7L192.3,248.9z"/>
			<path class="st29" d="M176.6,174.8c-1.4,0.1-2.5,1.3-2.5,2.7c0,1.4,1.1,2.6,2.5,2.7V174.8z"/>
			<path class="st29" d="M205.6,174.8c1.4,0.1,2.5,1.3,2.5,2.7c0,1.4-1.1,2.6-2.5,2.7V174.8z"/>
			<rect x="187.8" y="201.3" class="st11" width="8.5" height="45.4"/>
			<path class="st11" d="M201.5,171.7c0.4,1.3,1,2.7,2.2,3.1c1,0.3,2-0.3,2.9-0.8c0.5-0.3,1-0.7,1-1.3c0.1-0.5-0.2-0.9-0.4-1.4
				c-0.9-1.6-1.8-3.3-3-4.6c-1.1-1.2-3.1-3.2-4.2-1.1C199.3,166.9,201.1,170.3,201.5,171.7z"/>
			<path class="st11" d="M203,162.3c-3.2-2.4-7.2-3.8-11.6-3.8l0.2-2.6c-4.3,0-8.5,4-11.7,6.4c2.8,3.2,6.9,6.2,11.6,6.2
				C196.1,168.5,200.2,165.5,203,162.3z"/>
			<path class="st26" d="M152.6,224.4c-0.6-0.8-0.7-1.8-0.5-2.8c2.1-8.5,17.3-28.4,17.9-29.2c1-1.3,6.2-2.4,6.2-2.4l0.6,13.7
				l-13.7,16.1c-0.9,1.1-1.1,2.5-0.5,3.8l10.8,22l-5.7,1.6L152.6,224.4z"/>
			<path class="st28" d="M201.9,238.9l17.5,10.7c2.2,1.4,3.3,4,2.7,6.6l-13.4,57.7h-6.6l3.4-56.3l-18.5-8.7L201.9,238.9z"/>
			<path class="st26" d="M229.1,224c0.4-0.8,0.6-1.7,0.4-2.5c-1.7-8.3-15.2-28.2-15.9-29.1c-1-1.3-6.2-2.4-6.2-2.4l-0.6,13.7
				l11.8,15.7c0.8,1.1,1,2.4,0.5,3.7l-8.9,22.5l5.7,1.6L229.1,224z"/>
			<path class="st11" d="M181.1,171.7c-0.4,1.3-1,2.7-2.2,3.1c-1,0.3-2-0.3-2.9-0.8c-0.5-0.3-1-0.7-1-1.3c-0.1-0.5,0.2-0.9,0.4-1.4
				c0.9-1.6,1.8-3.3,3-4.6c1.1-1.2,3.1-3.2,4.2-1.1C183.3,166.9,181.5,170.3,181.1,171.7z"/>
			<path class="st15" d="M176,245.7c0,2.6-2.1,4.8-4.8,4.8s-4.8-2.1-4.8-4.8s2.1-4.8,4.8-4.8S176,243.1,176,245.7z"/>
			<path class="st26" d="M204.5,158.4c-2-5.1-12.9-6.9-13-6.9v0l0,0l0,0v0c-0.1,0-11.1,1.8-13,6.9c-2,5.2-7.8,19.6-7.6,23.6
				c0.2,3.9,7.4,7.9,7.4,7.9h6.6c0,0-9.8-6.6-10.8-9.6c-1-2.9,2.7-6.1,3.7-6.9c4.1-7,8.1-11.3,10.7-13.7c1.7-1.6,4.4-1.6,6.1,0
				c2.6,2.4,6.6,6.7,10.7,13.7c1,0.8,4.6,4,3.7,6.9c-1,2.9-9.8,9.5-9.8,9.5l5.6,0c0,0,7.1-3.9,7.4-7.9
				C212.3,178,206.4,163.5,204.5,158.4z"/>
			<path class="st15" d="M217.6,246.6c0.2-2.6-1.8-4.9-4.5-5c-2.6-0.2-4.9,1.8-5,4.5c-0.2,2.6,1.8,4.9,4.5,5
				C215.2,251.2,217.5,249.2,217.6,246.6z"/>
			<path class="st26" d="M210.6,225v20.5c0,0-11.6,4.3-13.2,4.1c-1.7-0.2-1.7-18.2-1.7-18.2l2.1-5.5L210.6,225z"/>
			<path class="st26" d="M173.4,225v20.5c0,0,11.6,4.3,13.2,4.1c1.7-0.2,1.7-18.2,1.7-18.2l-2.1-5.5L173.4,225z"/>
			<path class="st10" d="M177.3,313.9l0.9,8.4c0,0-8.5,14.1-11.9,14.5c-3.4,0.3-1.9-5.6,0-8.3c1.9-2.7,5.7-8.4,5.7-8.4l1.4-6.1
				H177.3z"/>
			<path class="st10" d="M203.3,313.9l-0.9,8.4c0,0,8.5,14.1,11.9,14.5c3.4,0.3,1.9-5.6,0-8.3c-1.9-2.7-5.7-8.4-5.7-8.4l-1.4-6.1
				H203.3z"/>
			<g>
				<path class="st2" d="M170.7,251.3H214c1.6,0,3.1-1.1,3.4-2.7l3.7-15.7c0.5-3-1.8-5.8-4.9-5.8l-49.6,0.4c-3.1,0-5.4,2.8-4.8,5.9
					l5.5,15.6C167.9,250.4,169.2,251.3,170.7,251.3z"/>
				<linearGradient id="SVGID_7_" gradientUnits="userSpaceOnUse" x1="184.4406" y1="239.1635" x2="139.5985" y2="240.2227">
					<stop  offset="0" style="stop-color:#484EC2;stop-opacity:0"/>
					<stop  offset="1" style="stop-color:#444BCC;stop-opacity:0.5"/>
				</linearGradient>
				<path class="st30" d="M197.2,227.3l-30.6,0.2c-3.1,0-5.4,2.8-4.8,5.9l5.5,15.6c0.5,1.4,1.8,2.3,3.3,2.3h7.8L197.2,227.3z"/>
				<ellipse class="st3" cx="190.9" cy="241.3" rx="4.4" ry="4"/>
			</g>
		</g>
	</g>
</g>
<g id="DESIGNED_BY_FREEPIK">
</g>
</svg>
