<svg xmlns="http://www.w3.org/2000/svg" viewBox="0 0 64 64" aria-labelledby="title"
aria-describedby="desc" role="img" xmlns:xlink="http://www.w3.org/1999/xlink"
width="128" height="128">
  <title>Config</title>
  <desc>A color styled icon from Orion Icon Library.</desc>
  <path data-name="layer2"
  d="M60.5 16h-2.862a12.911 12.911 0 0 0-1.671-3.96l2-2a1.5 1.5 0 0 0 0-2.121l-1.889-1.883a1.5 1.5 0 0 0-2.121 0l-2 2A12.911 12.911 0 0 0 48 6.362V3.5A1.5 1.5 0 0 0 46.5 2h-3A1.5 1.5 0 0 0 42 3.5v2.862a12.911 12.911 0 0 0-3.96 1.671l-2-2a1.5 1.5 0 0 0-2.121 0l-1.883 1.889a1.5 1.5 0 0 0 0 2.121l2 2A12.911 12.911 0 0 0 32.362 16H29.5a1.5 1.5 0 0 0-1.5 1.5v3a1.5 1.5 0 0 0 1.5 1.5h2.862a12.911 12.911 0 0 0 1.671 3.96l-2 2a1.5 1.5 0 0 0 0 2.121l1.886 1.886a1.5 1.5 0 0 0 2.121 0l2-2A12.911 12.911 0 0 0 42 31.638V34.5a1.5 1.5 0 0 0 1.5 1.5h3a1.5 1.5 0 0 0 1.5-1.5v-2.862a12.911 12.911 0 0 0 3.96-1.671l2 2a1.5 1.5 0 0 0 2.121 0l1.886-1.886a1.5 1.5 0 0 0 0-2.121l-2-2A12.911 12.911 0 0 0 57.638 22H60.5a1.5 1.5 0 0 0 1.5-1.5v-3a1.5 1.5 0 0 0-1.5-1.5zM45 25a6 6 0 1 1 6-6 6 6 0 0 1-6 6z"
  fill="#a5b0c8"></path>
  <path data-name="layer1" d="M48.5 34H48v.5a1.5 1.5 0 0 1-1.5 1.5h-3a1.5 1.5 0 0 1-1.5-1.5v-2.862a12.911 12.911 0 0 1-3.96-1.671l-2 2a1.5 1.5 0 0 1-2.121 0l-1.886-1.886a1.5 1.5 0 0 1 0-2.121l2-2A12.911 12.911 0 0 1 32.362 22H29.5a1.5 1.5 0 0 1-1.5-1.5v-3a1.5 1.5 0 0 1 1.5-1.5h.5v-.5a1.5 1.5 0 0 0-1.5-1.5h-5a1.5 1.5 0 0 0-1.5 1.5v3.93a18.874 18.874 0 0 0-6.3 2.617l-2.785-2.785a1.5 1.5 0 0 0-2.121 0L7.262 22.8a1.5 1.5 0 0 0 0 2.121l2.785 2.779A18.872 18.872 0 0 0 7.43 34H3.5A1.5 1.5 0 0 0 2 35.5v5A1.5 1.5 0 0 0 3.5 42h3.93a18.874 18.874 0 0 0 2.617 6.3l-2.785 2.782a1.5 1.5 0 0 0 0 2.121l3.538 3.535a1.5 1.5 0 0 0 2.121 0l2.779-2.784A18.874 18.874 0 0 0 22 56.57v3.93a1.5 1.5 0 0 0 1.5 1.5h5a1.5 1.5 0 0 0 1.5-1.5v-3.93a18.874 18.874 0 0 0 6.3-2.617l2.785 2.785a1.5 1.5 0 0 0 2.121 0l3.532-3.538a1.5 1.5 0 0 0 0-2.121L41.954 48.3A18.874 18.874 0 0 0 44.57 42h3.93a1.5 1.5 0 0 0 1.5-1.5v-5a1.5 1.5 0 0 0-1.5-1.5zM26 47a9 9 0 1 1 9-9 9 9 0 0 1-9 9z"
  fill="#7b8baf"></path>
  <path data-name="opacity" d="M10.047 27.7A18.99 18.99 0 0 0 7.99 32h2.44a18.872 18.872 0 0 1 2.617-6.3l-2.785-2.785a1.5 1.5 0 0 1 0-2.121l1.913-1.913a1.475 1.475 0 0 0-1.378.378L7.262 22.8a1.5 1.5 0 0 0 0 2.121zM13.8 54.738L10.262 51.2a1.5 1.5 0 0 1 0-2.121l2.785-2.779A18.874 18.874 0 0 1 10.43 40H6.5A1.5 1.5 0 0 1 5 38.5V34H3.5A1.5 1.5 0 0 0 2 35.5v5A1.5 1.5 0 0 0 3.5 42h3.93a18.874 18.874 0 0 0 2.617 6.3l-2.785 2.782a1.5 1.5 0 0 0 0 2.121l3.538 3.535a1.5 1.5 0 0 0 2.121 0l1.622-1.622a1.459 1.459 0 0 1-.743-.378zm28.282 0L39.3 51.954A18.874 18.874 0 0 1 33 54.57v1.075a19.069 19.069 0 0 0 3.3-1.691l2.785 2.785a1.5 1.5 0 0 0 2.121 0l1.622-1.622a1.458 1.458 0 0 1-.746-.379zM26.5 60a1.5 1.5 0 0 1-1.5-1.5v-3.93a18.874 18.874 0 0 1-6.3-2.617l-2.369 2.369A18.8 18.8 0 0 0 22 56.57v3.93a1.5 1.5 0 0 0 1.5 1.5h5a1.5 1.5 0 0 0 1.5-1.5V60zM42 34.5v-2.862a12.911 12.911 0 0 1-3.96-1.671l-1.359 1.359-.637.637a1.5 1.5 0 0 1-2.121 0l-1.886-1.886a1.5 1.5 0 0 1 0-2.121l.308-.308 1.535-1.535a5.956 5.956 0 0 1-.738-1.832 12.918 12.918 0 0 1-.78-2.281H29.5a1.5 1.5 0 0 1-1.5-1.5v-3a1.5 1.5 0 0 1 1.5-1.5h.5v-.5a1.5 1.5 0 0 0-1.5-1.5h-2.492c.012.013.016.03.029.043l2 2A12.911 12.911 0 0 0 26.362 20H23.5a1.5 1.5 0 0 0-1.5 1.5v3a1.5 1.5 0 0 0 1.5 1.5h2.862a12.665 12.665 0 0 0 .4 1.293 8.987 8.987 0 0 0-4.152 2.374 9.009 9.009 0 0 1 7.259.216l.056.027a9 9 0 0 1 1.969 1.3l.032.029a9.037 9.037 0 0 1 .793.788l.058.063a8.993 8.993 0 0 1 1.282 1.918l.06.124a8.931 8.931 0 0 1 .431 1.062 8.976 8.976 0 0 1-2.156 9.142 9.038 9.038 0 0 0 4.7-4.4A1.483 1.483 0 0 0 37.5 40h3a1.5 1.5 0 0 0 1.5-1.5v-2.862c.139-.033.272-.078.408-.115A1.491 1.491 0 0 1 42 34.5z"
  fill="#000064" opacity=".2"></path>
  <circle data-name="stroke" cx="26" cy="38" r="9" fill="none" stroke="#2e4369"
  stroke-linecap="round" stroke-miterlimit="10" stroke-width="2" stroke-linejoin="round"></circle>
  <circle data-name="stroke" cx="45" cy="19" r="6" fill="none"
  stroke="#2e4369" stroke-linecap="round" stroke-miterlimit="10" stroke-width="2"
  stroke-linejoin="round"></circle>
  <path data-name="stroke" d="M60.5 16h-2.862a12.911 12.911 0 0 0-1.671-3.96l2-2a1.5 1.5 0 0 0 0-2.121l-1.889-1.883a1.5 1.5 0 0 0-2.121 0l-2 2A12.911 12.911 0 0 0 48 6.362V3.5A1.5 1.5 0 0 0 46.5 2h-3A1.5 1.5 0 0 0 42 3.5v2.862a12.911 12.911 0 0 0-3.96 1.671l-2-2a1.5 1.5 0 0 0-2.121 0l-1.883 1.889a1.5 1.5 0 0 0 0 2.121l2 2A12.911 12.911 0 0 0 32.362 16H29.5a1.5 1.5 0 0 0-1.5 1.5v3a1.5 1.5 0 0 0 1.5 1.5h2.862a12.911 12.911 0 0 0 1.671 3.96l-2 2a1.5 1.5 0 0 0 0 2.121l1.886 1.886a1.5 1.5 0 0 0 2.121 0l2-2A12.911 12.911 0 0 0 42 31.638V34.5a1.5 1.5 0 0 0 1.5 1.5h3a1.5 1.5 0 0 0 1.5-1.5v-2.862a12.911 12.911 0 0 0 3.96-1.671l2 2a1.5 1.5 0 0 0 2.121 0l1.886-1.886a1.5 1.5 0 0 0 0-2.121l-2-2A12.911 12.911 0 0 0 57.638 22H60.5a1.5 1.5 0 0 0 1.5-1.5v-3a1.5 1.5 0 0 0-1.5-1.5z"
  fill="none" stroke="#2e4369" stroke-linecap="round" stroke-miterlimit="10"
  stroke-width="2" stroke-linejoin="round"></path>
  <path data-name="stroke" d="M30 16v-.5a1.5 1.5 0 0 0-1.5-1.5h-5a1.5 1.5 0 0 0-1.5 1.5v3.93a18.874 18.874 0 0 0-6.3 2.617l-2.785-2.785a1.5 1.5 0 0 0-2.121 0L7.262 22.8a1.5 1.5 0 0 0 0 2.121l2.785 2.779A18.872 18.872 0 0 0 7.43 34H3.5A1.5 1.5 0 0 0 2 35.5v5A1.5 1.5 0 0 0 3.5 42h3.93a18.874 18.874 0 0 0 2.617 6.3l-2.785 2.782a1.5 1.5 0 0 0 0 2.121l3.538 3.535a1.5 1.5 0 0 0 2.121 0l2.779-2.784A18.874 18.874 0 0 0 22 56.57v3.93a1.5 1.5 0 0 0 1.5 1.5h5a1.5 1.5 0 0 0 1.5-1.5v-3.93a18.874 18.874 0 0 0 6.3-2.617l2.785 2.785a1.5 1.5 0 0 0 2.121 0l3.532-3.538a1.5 1.5 0 0 0 0-2.121L41.954 48.3A18.874 18.874 0 0 0 44.57 42h3.93a1.5 1.5 0 0 0 1.5-1.5v-5a1.5 1.5 0 0 0-1.5-1.5H48"
  fill="none" stroke="#2e4369" stroke-linecap="round" stroke-miterlimit="10"
  stroke-width="2" stroke-linejoin="round"></path>
</svg>