<?xml version="1.0" encoding="utf-8"?>
<!-- Generator: Adobe Illustrator 22.1.0, SVG Export Plug-In . SVG Version: 6.00 Build 0)  -->
<svg version="1.1" id="レイヤー_1" xmlns="http://www.w3.org/2000/svg" xmlns:xlink="http://www.w3.org/1999/xlink" x="0px"
	 y="0px" viewBox="0 0 256 256" style="enable-background:new 0 0 256 256;" xml:space="preserve">
<style type="text/css">
	.st0{fill:#D1D1D1;}
</style>
<title>Upload To Cloud</title>
<desc>A solid styled icon from Orion Icon Library.</desc>
<path class="st0" d="M165.6,142.4L128,104.8l-37.6,37.6c-3.5,2.7-4.3,7.7-1.6,11.2s7.7,4.3,11.2,1.6c0.6-0.5,1.1-1,1.6-1.6
	l18.4-18.4V204c0,4.4,3.6,8,8,8c4.4,0,8-3.6,8-8v-68.8l18.4,18.4c2.7,3.5,7.7,4.3,11.2,1.6s4.3-7.7,1.6-11.2
	C166.7,143.4,166.2,142.9,165.6,142.4L165.6,142.4z"/>
<path class="st0" d="M196,84h-2c-15.4-34.2-55.7-49.5-89.9-34c-21,9.5-35.8,28.9-39.3,51.6c-23.4-6.5-47.7,7.3-54.1,30.7
	S18,180,41.4,186.4c3.5,1,7,1.5,10.6,1.6h52v-17.2c-12.5,4.3-26.2-2.4-30.5-15c-2.9-8.6-0.7-18.2,5.7-24.6l37.6-37.6L128,82
	l11.2,11.2l37.6,37.6c9.7,9.1,10.2,24.2,1.1,33.9c-6.6,7.1-16.8,9.5-25.9,6.1V188h44c28.7,0,52-23.3,52-52S224.7,84,196,84L196,84z"
	/>
</svg>
